<svg width="332" height="326" viewBox="0 0 332 326" fill="none" xmlns="http://www.w3.org/2000/svg">
<rect x="144" y="32" width="30" height="294" rx="7" fill="#3242D2"/>
<path d="M113.815 131.294C116.381 127.174 121.751 125.831 125.954 128.258L136.603 134.406C140.908 136.891 142.382 142.395 139.897 146.7L74.4751 260.014C71.9205 264.439 67.6916 267.648 62.7427 268.918L26.3323 278.26C24.5849 278.708 23.1838 276.797 24.1376 275.266L113.815 131.294Z" fill="#3242D2"/>
<path d="M261.5 33.5L307.36 47.1442C315.32 49.5125 319.67 58.0685 316.893 65.8957V65.8957C314.124 73.7005 308.663 80.2626 301.491 84.4033L169 160.897L154 134.916L265 55.5L261.5 33.5Z" fill="#3242D2"/>
<path d="M7.85446 155.685C6.39183 153.957 3.63592 155.606 4.46792 157.712L13.1149 179.593C13.4834 180.525 14.4857 181.041 15.4588 180.798L124.977 153.492C126.049 153.225 126.701 152.14 126.434 151.068L122.123 133.775C121.656 131.905 119.076 131.711 118.335 133.49L117.445 135.629C117.236 136.133 116.829 136.529 116.32 136.726L110.164 139.107L94.1962 143.735L66.26 151.991L40.751 158.169L22.1993 161.748L15.9355 163.447C15.1862 163.65 14.3869 163.402 13.8853 162.809L7.85446 155.685Z" fill="#3242D2"/>
<path d="M213.097 254.144C236.927 283.18 277.648 291.918 311.293 275.214L320.495 270.645L277.126 247.913C241.972 229.487 211.296 203.564 187.264 171.977L172.451 152.507C169.85 149.088 164.811 148.797 161.833 151.895L156.553 157.387C154.742 159.271 154.321 162.095 155.503 164.426L160.711 174.692C175.11 203.073 192.684 229.728 213.097 254.144V254.144V254.144Z" fill="#3242D2"/>
<path d="M120.687 26.5426C117.148 23.9005 119.872 18.3162 124.133 19.4783L168.603 31.6073C171.023 32.2673 172.245 34.9656 171.145 37.2198L163.612 52.6666C162.512 54.9208 159.633 55.6188 157.623 54.1183L120.687 26.5426Z" fill="#3242D2"/>
<rect x="18.6065" y="185.409" width="7.14612" height="4.06803" transform="rotate(160 18.6065 185.409)" fill="white"/>
</svg>
    